<svg xmlns="http://www.w3.org/2000/svg" xmlns:xlink="http://www.w3.org/1999/xlink" width="500" zoomAndPan="magnify" viewBox="0 0 375 374.999991" height="500" preserveAspectRatio="xMidYMid meet" version="1.0"><defs><g/><clipPath id="a292bab90b"><path d="M 178 140 L 270 140 L 270 275.507812 L 178 275.507812 Z M 178 140 " clip-rule="nonzero"/></clipPath><clipPath id="af651098ec"><path d="M 101.234375 103.757812 L 256 103.757812 L 256 275 L 101.234375 275 Z M 101.234375 103.757812 " clip-rule="nonzero"/></clipPath><clipPath id="ba645edffc"><path d="M 90.359375 301.851562 L 137.609375 301.851562 L 137.609375 349.101562 L 90.359375 349.101562 Z M 90.359375 301.851562 " clip-rule="nonzero"/></clipPath></defs><g fill="#1f628e" fill-opacity="1"><g transform="translate(31.905127, 260.860151)"><g><path d="M -7.765625 -3.84375 L -8.984375 -10.625 L -16.96875 -5.71875 Z M -2.984375 -16.65625 L -2.609375 -14.578125 L -7.328125 -11.671875 L -5.859375 -3.46875 L -0.421875 -2.375 L -0.046875 -0.28125 L -21.484375 -4.90625 Z M -2.984375 -16.65625 "/></g></g></g><g fill="#1f628e" fill-opacity="1"><g transform="translate(28.634578, 242.093015)"><g><path d="M -10.40625 -16.25 C -9.03125 -16.332031 -7.75 -16.15625 -6.5625 -15.71875 C -5.375 -15.257812 -4.335938 -14.617188 -3.453125 -13.796875 C -2.566406 -12.972656 -1.859375 -11.976562 -1.328125 -10.8125 C -0.773438 -9.65625 -0.460938 -8.398438 -0.390625 -7.046875 L -0.109375 -2.09375 L -19.046875 -1.03125 L -19.328125 -5.984375 C -19.398438 -7.335938 -19.238281 -8.625 -18.84375 -9.84375 C -18.425781 -11.0625 -17.820312 -12.128906 -17.03125 -13.046875 C -16.25 -13.960938 -15.296875 -14.710938 -14.171875 -15.296875 C -13.035156 -15.859375 -11.78125 -16.175781 -10.40625 -16.25 Z M -10.296875 -14.375 C -12.453125 -14.257812 -14.210938 -13.398438 -15.578125 -11.796875 C -16.898438 -10.222656 -17.5 -8.335938 -17.375 -6.140625 L -17.203125 -3.09375 L -2.171875 -3.9375 L -2.34375 -6.984375 C -2.46875 -9.179688 -3.28125 -10.984375 -4.78125 -12.390625 C -6.300781 -13.835938 -8.140625 -14.5 -10.296875 -14.375 Z M -10.296875 -14.375 "/></g></g></g><g fill="#1f628e" fill-opacity="1"><g transform="translate(27.649898, 222.216714)"><g><path d="M 1.734375 -8.796875 L -18.90625 -1.5625 L -18.765625 -3.6875 L -3.078125 -9.125 L -17.890625 -16.625 L -17.734375 -18.71875 Z M 1.734375 -8.796875 "/></g></g></g><g fill="#1f628e" fill-opacity="1"><g transform="translate(29.09802, 202.64833)"><g><path d="M -5.875 -6.359375 L -4.59375 -13.125 L -13.8125 -11.40625 Z M 3.171875 -16.625 L 2.765625 -14.546875 L -2.671875 -13.53125 L -4.234375 -5.328125 L 0.453125 -2.359375 L 0.046875 -0.28125 L -18.3125 -12.265625 Z M 3.171875 -16.625 "/></g></g></g><g fill="#1f628e" fill-opacity="1"><g transform="translate(32.790951, 183.923832)"><g><path d="M -12.09375 -8.0625 L 1.21875 -3.859375 L 0.625 -2 L -18.609375 -8.078125 L -0.9375 -13.671875 L -14.25 -17.875 L -13.671875 -19.734375 L 5.546875 -13.65625 Z M -12.09375 -8.0625 "/></g></g></g><g fill="#1f628e" fill-opacity="1"><g transform="translate(38.394961, 166.200941)"><g><path d="M 2.921875 -20.140625 C 4.273438 -18.722656 5.109375 -17.054688 5.421875 -15.140625 C 5.773438 -13.203125 5.546875 -11.351562 4.734375 -9.59375 C 3.640625 -7.21875 1.828125 -5.585938 -0.703125 -4.703125 C -3.191406 -3.859375 -5.640625 -3.992188 -8.046875 -5.109375 C -9.242188 -5.660156 -10.285156 -6.40625 -11.171875 -7.34375 C -12.035156 -8.269531 -12.691406 -9.304688 -13.140625 -10.453125 C -14.117188 -12.960938 -14.0625 -15.40625 -12.96875 -17.78125 C -12.15625 -19.539062 -10.910156 -20.914062 -9.234375 -21.90625 C -7.546875 -22.882812 -5.734375 -23.316406 -3.796875 -23.203125 L -4.703125 -21.25 C -6.835938 -21.113281 -8.609375 -20.253906 -10.015625 -18.671875 C -10.460938 -18.140625 -10.867188 -17.476562 -11.234375 -16.6875 C -11.597656 -15.894531 -11.789062 -15 -11.8125 -14 C -11.800781 -12.988281 -11.613281 -12.035156 -11.25 -11.140625 C -10.5 -9.179688 -9.160156 -7.757812 -7.234375 -6.875 C -5.328125 -5.988281 -3.382812 -5.894531 -1.40625 -6.59375 C 0.601562 -7.28125 2.039062 -8.566406 2.90625 -10.453125 C 3.5 -11.734375 3.710938 -13.066406 3.546875 -14.453125 C 3.367188 -15.828125 2.859375 -17.070312 2.015625 -18.1875 Z M 2.921875 -20.140625 "/></g></g></g><g fill="#1f628e" fill-opacity="1"><g transform="translate(48.188639, 146.044141)"><g><path d="M 2.046875 -3.5 L 1.0625 -1.8125 L -15.3125 -11.375 L -14.328125 -13.0625 Z M 2.046875 -3.5 "/></g></g></g><g fill="#1f628e" fill-opacity="1"><g transform="translate(52.274334, 138.782977)"><g><path d="M -9.09375 -11.359375 L 2.328125 -3.3125 L 1.203125 -1.71875 L -15.28125 -13.34375 L 3.25 -13.3125 L -8.15625 -21.34375 L -7.03125 -22.9375 L 9.421875 -11.34375 Z M -9.09375 -11.359375 "/></g></g></g><g fill="#1f628e" fill-opacity="1"><g transform="translate(62.909539, 123.586228)"><g><path d="M 7.609375 -21.296875 L 8.328125 -20.375 C 9.753906 -18.5 10.378906 -16.382812 10.203125 -14.03125 C 10.046875 -11.664062 9.1875 -9.640625 7.625 -7.953125 C 6.726562 -6.972656 5.679688 -6.210938 4.484375 -5.671875 C 3.304688 -5.148438 2.09375 -4.867188 0.84375 -4.828125 C -0.394531 -4.765625 -1.625 -4.953125 -2.84375 -5.390625 C -4.070312 -5.816406 -5.1875 -6.488281 -6.1875 -7.40625 C -7.164062 -8.320312 -7.914062 -9.367188 -8.4375 -10.546875 C -8.96875 -11.734375 -9.257812 -12.957031 -9.3125 -14.21875 C -9.363281 -15.457031 -9.175781 -16.6875 -8.75 -17.90625 C -8.300781 -19.125 -7.671875 -20.175781 -6.859375 -21.0625 C -5.328125 -22.71875 -3.5 -23.75 -1.375 -24.15625 C 0.75 -24.570312 2.800781 -24.300781 4.78125 -23.34375 L 3.375 -21.828125 C 1.84375 -22.441406 0.289062 -22.570312 -1.28125 -22.21875 C -2.851562 -21.851562 -4.191406 -21.078125 -5.296875 -19.890625 C -6.753906 -18.304688 -7.441406 -16.4375 -7.359375 -14.28125 C -7.273438 -12.125 -6.441406 -10.3125 -4.859375 -8.84375 C -3.285156 -7.394531 -1.410156 -6.710938 0.765625 -6.796875 C 2.910156 -6.835938 4.71875 -7.660156 6.1875 -9.265625 C 7.351562 -10.515625 8.054688 -11.992188 8.296875 -13.703125 C 8.503906 -15.421875 8.195312 -17.035156 7.375 -18.546875 L 2.15625 -12.890625 L 0.90625 -14.046875 Z M 7.609375 -21.296875 "/></g></g></g><g fill="#1f628e" fill-opacity="1"><g transform="translate(79.578715, 106.254303)"><g/></g></g><g fill="#1f628e" fill-opacity="1"><g transform="translate(86.815243, 99.783958)"><g><path d="M 0.640625 -11.578125 C -3.003906 -10.003906 -5.539062 -10.191406 -6.96875 -12.140625 C -8.019531 -13.578125 -8.3125 -15.023438 -7.84375 -16.484375 C -7.363281 -17.929688 -6.445312 -19.148438 -5.09375 -20.140625 C -2.113281 -22.328125 0.46875 -22.515625 2.65625 -20.703125 L 0.953125 -19.4375 C -0.316406 -20.550781 -2.003906 -20.335938 -4.109375 -18.796875 C -5.578125 -17.710938 -6.28125 -16.519531 -6.21875 -15.21875 C -6.207031 -14.726562 -6.019531 -14.234375 -5.65625 -13.734375 C -4.957031 -12.785156 -3.914062 -12.4375 -2.53125 -12.6875 C -1.851562 -12.78125 -0.585938 -13.195312 1.265625 -13.9375 C 3.109375 -14.664062 4.566406 -15.046875 5.640625 -15.078125 C 7.117188 -15.109375 8.3125 -14.5 9.21875 -13.25 C 10.351562 -11.707031 10.609375 -10.085938 9.984375 -8.390625 C 9.453125 -6.984375 8.4375 -5.734375 6.9375 -4.640625 C 3.550781 -2.148438 0.640625 -2 -1.796875 -4.1875 L 0.078125 -5.5625 C 1.546875 -4.144531 3.476562 -4.316406 5.875 -6.078125 C 7.582031 -7.328125 8.429688 -8.675781 8.421875 -10.125 C 8.410156 -10.695312 8.171875 -11.304688 7.703125 -11.953125 C 7.234375 -12.578125 6.609375 -12.910156 5.828125 -12.953125 C 4.703125 -13.003906 2.972656 -12.546875 0.640625 -11.578125 Z M 0.640625 -11.578125 "/></g></g></g><g fill="#1f628e" fill-opacity="1"><g transform="translate(101.288342, 89.24451)"><g><path d="M 10.640625 -13.265625 C 11.660156 -11.484375 11.882812 -9.75 11.3125 -8.0625 C 10.75 -6.46875 9.554688 -5.148438 7.734375 -4.109375 C 5.890625 -3.054688 4.144531 -2.707031 2.5 -3.0625 C 0.75 -3.425781 -0.632812 -4.5 -1.65625 -6.28125 L -7.921875 -17.3125 L -6.21875 -18.28125 L 0.1875 -7.015625 C 0.894531 -5.765625 1.894531 -5.0625 3.1875 -4.90625 C 4.28125 -4.78125 5.472656 -5.082031 6.765625 -5.8125 C 8.796875 -6.957031 9.769531 -8.40625 9.6875 -10.15625 C 9.65625 -10.757812 9.453125 -11.394531 9.078125 -12.0625 L 2.671875 -23.328125 L 4.375 -24.296875 Z M 10.640625 -13.265625 "/></g></g></g><g fill="#1f628e" fill-opacity="1"><g transform="translate(118.20947, 79.800374)"><g><path d="M 3.296875 -11.125 C -0.617188 -10.4375 -3.046875 -11.203125 -3.984375 -13.421875 C -4.679688 -15.066406 -4.628906 -16.546875 -3.828125 -17.859375 C -3.023438 -19.140625 -1.851562 -20.109375 -0.3125 -20.765625 C 3.09375 -22.203125 5.648438 -21.785156 7.359375 -19.515625 L 5.40625 -18.6875 C 4.425781 -20.0625 2.734375 -20.242188 0.328125 -19.234375 C -1.347656 -18.523438 -2.304688 -17.523438 -2.546875 -16.234375 C -2.648438 -15.753906 -2.582031 -15.234375 -2.34375 -14.671875 C -1.882812 -13.585938 -0.945312 -13.003906 0.46875 -12.921875 C 1.144531 -12.859375 2.46875 -12.972656 4.4375 -13.265625 C 6.40625 -13.554688 7.914062 -13.585938 8.96875 -13.359375 C 10.414062 -13.046875 11.441406 -12.179688 12.046875 -10.765625 C 12.796875 -8.992188 12.671875 -7.363281 11.671875 -5.875 C 10.816406 -4.632812 9.535156 -3.648438 7.828125 -2.921875 C 3.953125 -1.285156 1.082031 -1.8125 -0.78125 -4.5 L 1.34375 -5.390625 C 2.457031 -3.679688 4.390625 -3.40625 7.140625 -4.5625 C 9.085938 -5.382812 10.21875 -6.5 10.53125 -7.90625 C 10.65625 -8.457031 10.5625 -9.101562 10.25 -9.84375 C 9.945312 -10.5625 9.410156 -11.035156 8.640625 -11.265625 C 7.566406 -11.578125 5.785156 -11.53125 3.296875 -11.125 Z M 3.296875 -11.125 "/></g></g></g><g fill="#1f628e" fill-opacity="1"><g transform="translate(134.898753, 72.947884)"><g><path d="M -4.546875 -16.609375 L -5.078125 -18.34375 L -0.6875 -19.6875 L 1.1875 -20.265625 L 5.59375 -21.625 L 6.125 -19.890625 L 1.71875 -18.53125 L 6.78125 -2.15625 L 4.90625 -1.578125 L -0.15625 -17.953125 Z M -4.546875 -16.609375 "/></g></g></g><g fill="#1f628e" fill-opacity="1"><g transform="translate(148.5363, 68.707249)"><g><path d="M 3.71875 -7.84375 L 10.46875 -9.1875 L 5.421875 -17.078125 Z M 16.59375 -3.28125 L 14.53125 -2.875 L 11.53125 -7.546875 L 3.359375 -5.921875 L 2.359375 -0.46875 L 0.28125 -0.046875 L 4.53125 -21.5625 Z M 16.59375 -3.28125 "/></g></g></g><g fill="#1f628e" fill-opacity="1"><g transform="translate(167.605252, 65.276906)"><g><path d="M 4.015625 -0.4375 L 2.078125 -0.234375 L 0.015625 -19.09375 L 1.953125 -19.296875 Z M 4.015625 -0.4375 "/></g></g></g><g fill="#1f628e" fill-opacity="1"><g transform="translate(175.872385, 64.239648)"><g><path d="M 3.71875 -14.0625 L 4.046875 -0.09375 L 2.09375 -0.046875 L 1.625 -20.21875 L 12.625 -5.3125 L 12.296875 -19.265625 L 14.25 -19.3125 L 14.734375 0.828125 Z M 3.71875 -14.0625 "/></g></g></g><g fill="#1f628e" fill-opacity="1"><g transform="translate(194.53913, 63.897968)"><g><path d="M 5.796875 -6.453125 L 12.65625 -5.796875 L 10.078125 -14.828125 Z M 16.84375 1.59375 L 14.75 1.390625 L 13.203125 -3.9375 L 4.90625 -4.71875 L 2.390625 0.21875 L 0.28125 0.03125 L 10.5 -19.375 Z M 16.84375 1.59375 "/></g></g></g><g fill="#1f628e" fill-opacity="1"><g transform="translate(213.570216, 65.866883)"><g><path d="M 15.25 -2.21875 C 15.082031 -1.445312 14.757812 -0.753906 14.28125 -0.140625 C 13.789062 0.472656 13.207031 0.9375 12.53125 1.25 C 11.21875 1.894531 9.613281 2.019531 7.71875 1.625 L 2.046875 0.4375 L 5.9375 -18.125 L 10.953125 -17.078125 C 13.660156 -16.515625 15.257812 -15.3125 15.75 -13.46875 C 15.894531 -12.800781 15.90625 -12.15625 15.78125 -11.53125 C 15.644531 -10.90625 15.492188 -10.429688 15.328125 -10.109375 C 15.160156 -9.773438 14.953125 -9.46875 14.703125 -9.1875 C 14.128906 -8.550781 13.476562 -8.15625 12.75 -8 C 13.789062 -7.488281 14.539062 -6.726562 15 -5.71875 C 15.4375 -4.695312 15.519531 -3.53125 15.25 -2.21875 Z M 13.8125 -11.640625 C 14.207031 -13.515625 13.128906 -14.71875 10.578125 -15.25 L 7.46875 -15.90625 L 6.25 -10.125 L 9.90625 -9.359375 C 10.882812 -9.148438 11.726562 -9.226562 12.4375 -9.59375 C 13.144531 -9.957031 13.601562 -10.640625 13.8125 -11.640625 Z M 13.40625 -2.96875 C 13.519531 -3.519531 13.523438 -4.019531 13.421875 -4.46875 C 13.285156 -4.9375 13.082031 -5.363281 12.8125 -5.75 C 12.226562 -6.53125 11.441406 -7.023438 10.453125 -7.234375 L 5.84375 -8.203125 L 4.34375 -1 L 8.65625 -0.09375 C 9.820312 0.144531 10.84375 0.00390625 11.71875 -0.515625 C 12.613281 -1.046875 13.175781 -1.863281 13.40625 -2.96875 Z M 13.40625 -2.96875 "/></g></g></g><g fill="#1f628e" fill-opacity="1"><g transform="translate(230.284414, 69.562374)"><g><path d="M 4.4375 -0.65625 L 10.921875 1.359375 L 10.34375 3.21875 L 3.859375 1.203125 L 2.921875 0.90625 L 2 0.625 L 7.640625 -17.484375 L 9.5 -16.90625 Z M 4.4375 -0.65625 "/></g></g></g><g fill="#1f628e" fill-opacity="1"><g transform="translate(243.134267, 73.570214)"><g><path d="M 12.3125 5.1875 L 1.921875 0.8125 L 9.296875 -16.671875 L 19.6875 -12.296875 L 18.984375 -10.625 L 10.40625 -14.234375 L 7.78125 -8.015625 L 16.09375 -4.515625 L 15.375 -2.8125 L 7.0625 -6.3125 L 4.4375 -0.09375 L 13.015625 3.515625 Z M 12.3125 5.1875 "/></g></g></g><g fill="#1f628e" fill-opacity="1"><g transform="translate(259.276132, 80.661219)"><g/></g></g><g fill="#1f628e" fill-opacity="1"><g transform="translate(267.868457, 84.933211)"><g><path d="M 19.46875 5.90625 C 17.863281 7.039062 16.09375 7.625 14.15625 7.65625 C 12.1875 7.707031 10.390625 7.203125 8.765625 6.140625 C 6.585938 4.691406 5.257812 2.648438 4.78125 0.015625 C 4.300781 -2.578125 4.796875 -4.984375 6.265625 -7.203125 C 6.992188 -8.304688 7.882812 -9.21875 8.9375 -9.9375 C 9.988281 -10.65625 11.117188 -11.144531 12.328125 -11.40625 C 14.941406 -12 17.335938 -11.570312 19.515625 -10.125 C 21.140625 -9.0625 22.316406 -7.632812 23.046875 -5.84375 C 23.765625 -4.007812 23.914062 -2.148438 23.5 -0.265625 L 21.703125 -1.453125 C 21.898438 -3.585938 21.320312 -5.460938 19.96875 -7.078125 C 19.507812 -7.617188 18.914062 -8.128906 18.1875 -8.609375 C 17.457031 -9.085938 16.601562 -9.410156 15.625 -9.578125 C 14.625 -9.710938 13.648438 -9.671875 12.703125 -9.453125 C 10.660156 -9.003906 9.054688 -7.894531 7.890625 -6.125 C 6.722656 -4.363281 6.335938 -2.457031 6.734375 -0.40625 C 7.097656 1.6875 8.144531 3.304688 9.875 4.453125 C 11.0625 5.234375 12.351562 5.644531 13.75 5.6875 C 15.132812 5.71875 16.441406 5.394531 17.671875 4.71875 Z M 19.46875 5.90625 "/></g></g></g><g fill="#1f628e" fill-opacity="1"><g transform="translate(286.180453, 97.112132)"><g><path d="M 20.375 5.359375 C 21.800781 3.753906 22.453125 1.878906 22.328125 -0.265625 C 22.191406 -2.421875 21.320312 -4.210938 19.71875 -5.640625 C 18.113281 -7.054688 16.238281 -7.703125 14.09375 -7.578125 C 11.9375 -7.460938 10.144531 -6.601562 8.71875 -5 C 7.289062 -3.382812 6.644531 -1.5 6.78125 0.65625 C 6.90625 2.800781 7.769531 4.582031 9.375 6 C 10.976562 7.425781 12.859375 8.082031 15.015625 7.96875 C 17.160156 7.84375 18.945312 6.972656 20.375 5.359375 Z M 21.84375 6.65625 C 20.957031 7.65625 19.929688 8.429688 18.765625 8.984375 C 17.585938 9.535156 16.382812 9.84375 15.15625 9.90625 C 13.882812 9.976562 12.640625 9.804688 11.421875 9.390625 C 10.191406 8.992188 9.078125 8.347656 8.078125 7.453125 C 7.078125 6.566406 6.304688 5.539062 5.765625 4.375 C 5.210938 3.207031 4.90625 2 4.84375 0.75 C 4.757812 -0.476562 4.921875 -1.710938 5.328125 -2.953125 C 5.734375 -4.179688 6.378906 -5.296875 7.265625 -6.296875 C 8.160156 -7.296875 9.195312 -8.070312 10.375 -8.625 C 11.539062 -9.164062 12.742188 -9.472656 13.984375 -9.546875 C 15.222656 -9.617188 16.457031 -9.453125 17.6875 -9.046875 C 18.90625 -8.640625 20.015625 -7.992188 21.015625 -7.109375 C 22.015625 -6.210938 22.789062 -5.1875 23.34375 -4.03125 C 23.882812 -2.851562 24.203125 -1.640625 24.296875 -0.390625 C 24.367188 0.847656 24.207031 2.082031 23.8125 3.3125 C 23.394531 4.539062 22.738281 5.65625 21.84375 6.65625 Z M 21.84375 6.65625 "/></g></g></g><g fill="#1f628e" fill-opacity="1"><g transform="translate(303.741983, 113.092441)"><g><path d="M 13.203125 -6.0625 L 2.640625 3.0625 L 1.375 1.578125 L 16.640625 -11.609375 L 12.125 6.359375 L 22.6875 -2.765625 L 23.96875 -1.28125 L 8.71875 11.890625 Z M 13.203125 -6.0625 "/></g></g></g><g fill="#1f628e" fill-opacity="1"><g transform="translate(315.867981, 127.329937)"><g><path d="M 11.53125 1.03125 C 10.101562 -2.65625 10.382812 -5.179688 12.375 -6.546875 C 13.851562 -7.546875 15.316406 -7.785156 16.765625 -7.265625 C 18.179688 -6.734375 19.363281 -5.773438 20.3125 -4.390625 C 22.394531 -1.335938 22.488281 1.25 20.59375 3.375 L 19.390625 1.625 C 20.546875 0.394531 20.394531 -1.296875 18.9375 -3.453125 C 17.90625 -4.953125 16.738281 -5.695312 15.4375 -5.6875 C 14.925781 -5.695312 14.421875 -5.53125 13.921875 -5.1875 C 12.941406 -4.519531 12.554688 -3.484375 12.765625 -2.078125 C 12.828125 -1.410156 13.195312 -0.132812 13.875 1.75 C 14.550781 3.625 14.882812 5.09375 14.875 6.15625 C 14.84375 7.644531 14.191406 8.820312 12.921875 9.6875 C 11.335938 10.769531 9.710938 10.96875 8.046875 10.28125 C 6.660156 9.6875 5.445312 8.625 4.40625 7.09375 C 2.03125 3.613281 1.976562 0.703125 4.25 -1.640625 L 5.5625 0.265625 C 4.09375 1.691406 4.195312 3.632812 5.875 6.09375 C 7.0625 7.84375 8.378906 8.738281 9.828125 8.78125 C 10.398438 8.78125 11.019531 8.554688 11.6875 8.109375 C 12.332031 7.671875 12.6875 7.0625 12.75 6.28125 C 12.832031 5.144531 12.425781 3.394531 11.53125 1.03125 Z M 11.53125 1.03125 "/></g></g></g><g fill="#1f628e" fill-opacity="1"><g transform="translate(325.898216, 142.159988)"><g><path d="M 12.890625 11.109375 C 11.078125 12.054688 9.335938 12.210938 7.671875 11.578125 C 6.085938 10.960938 4.8125 9.722656 3.84375 7.859375 C 2.851562 5.984375 2.5625 4.234375 2.96875 2.609375 C 3.40625 0.867188 4.53125 -0.472656 6.34375 -1.421875 L 17.59375 -7.3125 L 18.5 -5.578125 L 7 0.4375 C 5.726562 1.101562 4.992188 2.070312 4.796875 3.34375 C 4.628906 4.4375 4.890625 5.640625 5.578125 6.953125 C 6.648438 9.023438 8.0625 10.050781 9.8125 10.03125 C 10.425781 10.03125 11.066406 9.851562 11.734375 9.5 L 23.234375 3.484375 L 24.140625 5.21875 Z M 12.890625 11.109375 "/></g></g></g><g fill="#1f628e" fill-opacity="1"><g transform="translate(334.841828, 159.18337)"><g><path d="M 6.6875 18.40625 L 18.359375 11.015625 L 2.6875 10.65625 L 14.46875 0.296875 L 0.78125 2.140625 L 0.09375 0.265625 L 20.609375 -2.46875 L 7.484375 8.921875 L 24.859375 9.21875 L 7.359375 20.265625 Z M 6.6875 18.40625 "/></g></g></g><g fill="#1f628e" fill-opacity="1"><g transform="translate(342.600865, 181.507809)"><g><path d="M 10.0625 1.875 L 11.046875 6.171875 C 11.285156 7.234375 11.84375 8.023438 12.71875 8.546875 C 13.613281 9.097656 14.601562 9.253906 15.6875 9.015625 C 16.78125 8.765625 17.59375 8.222656 18.125 7.390625 C 18.65625 6.566406 18.796875 5.59375 18.546875 4.46875 L 17.5625 0.171875 Z M 16.0625 10.90625 C 14.445312 11.28125 12.976562 11.015625 11.65625 10.109375 C 10.34375 9.222656 9.5 7.957031 9.125 6.3125 L 8.203125 2.296875 L 0.890625 3.953125 L 0.46875 2.046875 L 18.96875 -2.15625 L 20.3125 3.765625 C 20.675781 5.398438 20.46875 6.90625 19.6875 8.28125 C 18.90625 9.664062 17.695312 10.539062 16.0625 10.90625 Z M 16.0625 10.90625 "/></g></g></g><g fill="#1f628e" fill-opacity="1"><g transform="translate(346.167009, 197.949178)"><g><path d="M 17.140625 -1.59375 L 18.9375 -1.828125 L 19.5 2.71875 L 19.75 4.65625 L 20.328125 9.234375 L 18.53125 9.46875 L 17.953125 4.890625 L 0.953125 7.03125 L 0.703125 5.09375 L 17.703125 2.953125 Z M 17.140625 -1.59375 "/></g></g></g><g fill="#1f628e" fill-opacity="1"><g transform="translate(347.802641, 212.443287)"><g><path d="M 0.21875 4.046875 L 0.109375 2.09375 L 19.046875 1.0625 L 19.15625 3.015625 Z M 0.21875 4.046875 "/></g></g></g><g fill="#1f628e" fill-opacity="1"><g transform="translate(348.537084, 220.614374)"><g><path d="M 8.640625 19.21875 C 10.785156 19.320312 12.65625 18.648438 14.25 17.203125 C 15.84375 15.742188 16.6875 13.9375 16.78125 11.78125 C 16.882812 9.644531 16.210938 7.785156 14.765625 6.203125 C 13.304688 4.597656 11.503906 3.742188 9.359375 3.640625 C 7.210938 3.546875 5.347656 4.226562 3.765625 5.6875 C 2.171875 7.125 1.320312 8.910156 1.21875 11.046875 C 1.125 13.203125 1.800781 15.082031 3.25 16.6875 C 4.695312 18.28125 6.492188 19.125 8.640625 19.21875 Z M 8.546875 21.171875 C 7.210938 21.109375 5.96875 20.800781 4.8125 20.25 C 3.644531 19.675781 2.648438 18.929688 1.828125 18.015625 C 0.972656 17.078125 0.320312 16.003906 -0.125 14.796875 C -0.59375 13.578125 -0.796875 12.296875 -0.734375 10.953125 C -0.671875 9.617188 -0.347656 8.378906 0.234375 7.234375 C 0.785156 6.078125 1.53125 5.082031 2.46875 4.25 C 3.375 3.40625 4.4375 2.753906 5.65625 2.296875 C 6.851562 1.828125 8.117188 1.625 9.453125 1.6875 C 10.796875 1.75 12.050781 2.070312 13.21875 2.65625 C 14.382812 3.21875 15.382812 3.960938 16.21875 4.890625 C 17.050781 5.804688 17.703125 6.863281 18.171875 8.0625 C 18.609375 9.257812 18.796875 10.523438 18.734375 11.859375 C 18.671875 13.203125 18.363281 14.457031 17.8125 15.625 C 17.238281 16.789062 16.492188 17.800781 15.578125 18.65625 C 14.660156 19.488281 13.59375 20.140625 12.375 20.609375 C 11.164062 21.046875 9.890625 21.234375 8.546875 21.171875 Z M 8.546875 21.171875 "/></g></g></g><g fill="#1f628e" fill-opacity="1"><g transform="translate(347.150838, 244.314746)"><g><path d="M 13.03125 6.46875 L -0.71875 3.984375 L -0.375 2.0625 L 19.46875 5.640625 L 2.671875 13.4375 L 16.40625 15.90625 L 16.0625 17.828125 L -3.765625 14.265625 Z M 13.03125 6.46875 "/></g></g></g><g clip-path="url(#a292bab90b)"><path fill="#08823f" d="M 179.207031 271.332031 C 181.082031 267.308594 183.136719 263.320312 185.980469 259.851562 C 188.796875 256.316406 192.089844 253.210938 195.636719 250.550781 C 196.898438 249.621094 198.183594 248.75 199.476562 247.902344 C 199.488281 247.894531 199.496094 247.878906 199.492188 247.863281 C 196.929688 234.253906 200.75 214.167969 201.222656 211.773438 C 201.234375 211.730469 201.296875 211.738281 201.300781 211.785156 C 202.292969 219.921875 207.257812 220.960938 207.738281 221.042969 C 207.757812 221.046875 207.773438 221.03125 207.773438 221.007812 C 209.167969 199.113281 230.296875 182.210938 230.296875 182.210938 C 242.050781 172.167969 247.339844 158.527344 246.238281 140.878906 C 246.234375 140.847656 246.269531 140.824219 246.296875 140.839844 C 268.109375 151.839844 263.164062 179.921875 262.910156 181.289062 C 262.90625 181.324219 262.925781 181.339844 262.957031 181.332031 C 265.394531 180.816406 268.089844 175.132812 268.488281 174.265625 C 268.507812 174.226562 268.558594 174.238281 268.566406 174.277344 C 275.238281 209.246094 250.21875 238.714844 249.175781 239.679688 C 249.160156 239.691406 249.164062 239.710938 249.183594 239.722656 C 252.90625 242.894531 259.296875 240.160156 260.695312 239.503906 C 260.738281 239.484375 260.765625 239.542969 260.730469 239.574219 C 225.839844 269.980469 207.925781 254.863281 205.441406 253.109375 C 205.410156 253.085938 205.421875 253.0625 205.449219 253.050781 C 242.832031 236.445312 247.257812 197.550781 247.660156 192.871094 C 247.664062 192.820312 247.597656 192.804688 247.585938 192.851562 C 246.402344 197.457031 242.96875 204.402344 240.390625 209.261719 C 238.859375 212.367188 237.183594 215.398438 235.40625 218.359375 C 233.144531 222.054688 230.703125 225.628906 228.085938 229.097656 C 225.417969 232.582031 222.277344 235.691406 218.90625 238.492188 C 212.121094 244.078125 204.417969 248.199219 197.949219 253.503906 C 194.730469 256.171875 191.871094 259.164062 189.476562 262.484375 C 187.023438 265.769531 185.335938 269.550781 183.78125 273.339844 L 183.714844 273.503906 C 183.699219 273.535156 183.6875 273.566406 183.671875 273.597656 C 183.058594 274.917969 181.441406 275.449219 180.152344 274.710938 C 179.003906 274.050781 178.648438 272.539062 179.207031 271.332031 " fill-opacity="1" fill-rule="nonzero"/></g><path fill="#08823f" d="M 178.074219 215.746094 C 178.082031 215.75 178.09375 215.75 178.09375 215.738281 C 178.425781 214.890625 177.3125 212.921875 177.144531 212.628906 C 177.136719 212.613281 177.148438 212.601562 177.164062 212.605469 C 188.578125 217.566406 192.167969 231.148438 192.238281 231.660156 C 192.242188 231.667969 192.25 231.667969 192.253906 231.667969 C 193.902344 231.15625 194.371094 228.652344 194.457031 228.089844 C 194.460938 228.074219 194.484375 228.074219 194.484375 228.09375 C 196.402344 244.886719 188.515625 247.351562 187.511719 247.765625 C 187.503906 247.765625 187.496094 247.761719 187.5 247.75 C 190.0625 232.953125 179.691406 223.804688 178.417969 222.742188 C 178.40625 222.734375 178.386719 222.753906 178.398438 222.765625 C 179.496094 224.046875 180.828125 226.492188 181.722656 228.257812 C 182.316406 229.351562 182.863281 230.472656 183.375 231.609375 C 183.996094 233.046875 184.546875 234.507812 185.03125 236.007812 C 185.515625 237.523438 185.792969 239.109375 185.941406 240.703125 C 186.175781 243.453125 185.972656 246.199219 186.078125 248.851562 C 185.539062 248.726562 184.949219 248.558594 184.355469 248.316406 C 184.339844 248.308594 184.324219 248.304688 184.3125 248.296875 C 183.5625 247.933594 182.804688 247.492188 182.058594 246.992188 L 182.050781 246.992188 C 178.5 244.652344 175.21875 241.273438 174.746094 240.777344 C 174.734375 240.761719 174.746094 240.746094 174.761719 240.75 C 177.308594 242.078125 178.585938 240.765625 178.703125 240.636719 C 178.710938 240.628906 178.707031 240.621094 178.703125 240.613281 C 172.652344 235.800781 171.921875 225.933594 171.921875 225.933594 C 171.335938 220.316406 168.433594 215.960938 163.117188 212.761719 C 163.109375 212.757812 163.105469 212.738281 163.117188 212.734375 C 170.589844 208.25 177.730469 215.390625 178.074219 215.746094 " fill-opacity="1" fill-rule="nonzero"/><g clip-path="url(#af651098ec)"><path fill="#08823f" d="M 248.609375 130.910156 C 233.550781 112.832031 212.847656 103.796875 186.5 103.796875 C 169.628906 103.796875 154.746094 107.582031 141.832031 115.148438 C 128.925781 122.714844 118.929688 133.089844 111.855469 146.269531 C 104.777344 159.449219 101.238281 172.777344 101.238281 186.261719 C 101.238281 212.015625 109.214844 233.253906 125.179688 249.972656 C 138.503906 263.925781 154.632812 272.058594 173.578125 274.359375 C 173.164062 272.613281 173.332031 270.710938 174.136719 268.972656 C 174.925781 267.285156 175.761719 265.558594 176.6875 263.84375 C 141.972656 260.121094 124.613281 234.253906 124.613281 186.253906 C 124.613281 166.648438 130.082031 149.691406 141.019531 135.402344 C 151.957031 121.109375 167.117188 113.960938 186.5 113.960938 C 205.277344 113.960938 220.175781 120.917969 231.1875 134.835938 C 234.925781 139.558594 238.019531 144.992188 240.492188 151.148438 C 240.816406 148.023438 240.871094 144.722656 240.65625 141.230469 C 240.648438 141.199219 240.648438 141.164062 240.648438 141.132812 C 240.558594 139.15625 241.542969 137.230469 243.207031 136.148438 C 244.871094 135.066406 247.027344 134.945312 248.800781 135.835938 C 251.359375 137.125 253.621094 138.628906 255.613281 140.304688 C 253.5 137.109375 251.160156 133.976562 248.609375 130.910156 " fill-opacity="1" fill-rule="nonzero"/></g><path fill="#08823f" d="M 221.71875 264.046875 C 216.28125 264.050781 211.742188 262.828125 208.089844 261.164062 C 204.179688 262.402344 200.003906 263.277344 195.539062 263.777344 C 195.003906 264.425781 194.496094 265.082031 194.011719 265.753906 C 193.996094 265.785156 193.980469 265.804688 193.960938 265.828125 C 191.921875 268.558594 190.414062 271.941406 189.152344 274.972656 C 202.433594 274.507812 215.042969 271.710938 226.988281 266.574219 C 228.132812 266.078125 229.257812 265.554688 230.371094 265 C 231.375 264.496094 230.859375 262.972656 229.757812 263.199219 C 226.890625 263.789062 224.210938 264.046875 221.71875 264.046875 " fill-opacity="1" fill-rule="nonzero"/><g clip-path="url(#ba645edffc)"><path fill="#000000" d="M 113.984375 305.488281 C 125.007812 305.488281 133.976562 314.453125 133.976562 325.476562 C 133.976562 336.5 125.007812 345.46875 113.984375 345.46875 C 102.960938 345.46875 93.996094 336.5 93.996094 325.476562 C 93.996094 314.453125 102.960938 305.488281 113.984375 305.488281 M 113.984375 301.851562 C 100.9375 301.851562 90.359375 312.429688 90.359375 325.476562 C 90.359375 338.523438 100.9375 349.101562 113.984375 349.101562 C 127.03125 349.101562 137.609375 338.523438 137.609375 325.476562 C 137.609375 312.429688 127.03125 301.851562 113.984375 301.851562 Z M 113.984375 301.851562 " fill-opacity="1" fill-rule="nonzero"/></g><path fill="#000000" d="M 113.984375 307.671875 C 104.152344 307.671875 96.179688 315.644531 96.179688 325.476562 C 96.179688 335.308594 104.152344 343.28125 113.984375 343.28125 C 123.816406 343.28125 131.789062 335.308594 131.789062 325.476562 C 131.789062 315.644531 123.816406 307.671875 113.984375 307.671875 Z M 108.53125 334.5625 C 106.527344 334.5625 104.898438 332.933594 104.898438 330.929688 C 104.898438 328.921875 106.527344 327.292969 108.53125 327.292969 C 110.539062 327.292969 112.167969 328.921875 112.167969 330.929688 C 112.167969 332.933594 110.539062 334.5625 108.53125 334.5625 Z M 108.53125 323.660156 C 106.527344 323.660156 104.898438 322.03125 104.898438 320.023438 C 104.898438 318.019531 106.527344 316.390625 108.53125 316.390625 C 110.539062 316.390625 112.167969 318.019531 112.167969 320.023438 C 112.167969 322.03125 110.539062 323.660156 108.53125 323.660156 Z M 119.4375 334.5625 C 117.429688 334.5625 115.800781 332.933594 115.800781 330.929688 C 115.800781 328.921875 117.429688 327.292969 119.4375 327.292969 C 121.441406 327.292969 123.070312 328.921875 123.070312 330.929688 C 123.070312 332.933594 121.441406 334.5625 119.4375 334.5625 Z M 119.4375 323.660156 C 117.429688 323.660156 115.800781 322.03125 115.800781 320.023438 C 115.800781 318.019531 117.429688 316.390625 119.4375 316.390625 C 121.441406 316.390625 123.070312 318.019531 123.070312 320.023438 C 123.070312 322.03125 121.441406 323.660156 119.4375 323.660156 Z M 119.4375 323.660156 " fill-opacity="1" fill-rule="nonzero"/><g fill="#1f628e" fill-opacity="1"><g transform="translate(137.195496, 345.187365)"><g><path d="M 12.53125 0 L 12.53125 -0.8125 C 13.5 -1.113281 14.160156 -1.742188 14.515625 -2.703125 C 14.878906 -3.671875 15.0625 -5.4375 15.0625 -8 L 15.0625 -43.09375 L 11.96875 -43.09375 C 9.15625 -43.09375 7.015625 -42.648438 5.546875 -41.765625 C 4.078125 -40.890625 2.796875 -39.316406 1.703125 -37.046875 L 1.015625 -37.171875 L 1.390625 -44.09375 L 33.828125 -44.09375 L 34.203125 -37.171875 L 33.515625 -37.046875 C 32.460938 -39.316406 31.203125 -40.890625 29.734375 -41.765625 C 28.265625 -42.648438 26.101562 -43.09375 23.25 -43.09375 L 20.28125 -43.09375 L 20.28125 -8 C 20.28125 -5.4375 20.457031 -3.671875 20.8125 -2.703125 C 21.175781 -1.742188 21.84375 -1.113281 22.8125 -0.8125 L 22.8125 0 Z M 12.53125 0 "/></g></g></g><g fill="#1f628e" fill-opacity="1"><g transform="translate(172.536917, 345.187365)"><g><path d="M 3.21875 0 L 3.21875 -0.8125 C 4.175781 -1.113281 4.832031 -1.742188 5.1875 -2.703125 C 5.550781 -3.671875 5.734375 -5.4375 5.734375 -8 L 5.734375 -36.09375 C 5.734375 -38.695312 5.550781 -40.472656 5.1875 -41.421875 C 4.832031 -42.367188 4.175781 -42.988281 3.21875 -43.28125 L 3.21875 -44.09375 L 13.421875 -44.09375 L 13.421875 -43.28125 C 12.453125 -42.988281 11.789062 -42.367188 11.4375 -41.421875 C 11.082031 -40.472656 10.90625 -38.695312 10.90625 -36.09375 L 10.90625 -23.875 L 34.90625 -23.875 L 34.90625 -36.09375 C 34.90625 -38.695312 34.722656 -40.472656 34.359375 -41.421875 C 34.003906 -42.367188 33.34375 -42.988281 32.375 -43.28125 L 32.375 -44.09375 L 42.59375 -44.09375 L 42.59375 -43.28125 C 41.625 -42.988281 40.957031 -42.367188 40.59375 -41.421875 C 40.238281 -40.472656 40.0625 -38.695312 40.0625 -36.09375 L 40.0625 -8 C 40.0625 -5.4375 40.238281 -3.671875 40.59375 -2.703125 C 40.957031 -1.742188 41.625 -1.113281 42.59375 -0.8125 L 42.59375 0 L 32.375 0 L 32.375 -0.8125 C 33.34375 -1.113281 34.003906 -1.742188 34.359375 -2.703125 C 34.722656 -3.671875 34.90625 -5.4375 34.90625 -8 L 34.90625 -22.875 L 10.90625 -22.875 L 10.90625 -8 C 10.90625 -5.4375 11.082031 -3.671875 11.4375 -2.703125 C 11.789062 -1.742188 12.453125 -1.113281 13.421875 -0.8125 L 13.421875 0 Z M 3.21875 0 "/></g></g></g><g fill="#1f628e" fill-opacity="1"><g transform="translate(218.335867, 345.187365)"><g><path d="M 35.28125 0.4375 C 33.6875 0.4375 32.425781 0.0507812 31.5 -0.71875 C 30.570312 -1.5 29.757812 -2.632812 29.0625 -4.125 C 28.375 -5.613281 27.570312 -7.453125 26.65625 -9.640625 C 25.726562 -11.828125 24.945312 -13.738281 24.3125 -15.375 C 23.6875 -17.007812 23.003906 -18.375 22.265625 -19.46875 C 21.535156 -20.5625 20.601562 -21.378906 19.46875 -21.921875 C 18.332031 -22.472656 16.820312 -22.75 14.9375 -22.75 L 10.90625 -22.75 L 10.90625 -8 C 10.90625 -5.4375 11.082031 -3.671875 11.4375 -2.703125 C 11.789062 -1.742188 12.453125 -1.113281 13.421875 -0.8125 L 13.421875 0 L 3.21875 0 L 3.21875 -0.8125 C 4.175781 -1.113281 4.832031 -1.742188 5.1875 -2.703125 C 5.550781 -3.671875 5.734375 -5.4375 5.734375 -8 L 5.734375 -36.09375 C 5.734375 -38.695312 5.550781 -40.472656 5.1875 -41.421875 C 4.832031 -42.367188 4.175781 -42.988281 3.21875 -43.28125 L 3.21875 -44.09375 L 15.625 -44.09375 C 19.90625 -44.09375 23.242188 -43.660156 25.640625 -42.796875 C 28.035156 -41.941406 29.722656 -40.78125 30.703125 -39.3125 C 31.691406 -37.84375 32.1875 -36.160156 32.1875 -34.265625 C 32.1875 -31.328125 31.132812 -28.816406 29.03125 -26.734375 C 26.9375 -24.660156 23.832031 -23.394531 19.71875 -22.9375 C 21.644531 -22.675781 23.21875 -22.242188 24.4375 -21.640625 C 25.65625 -21.035156 26.664062 -20.21875 27.46875 -19.1875 C 28.269531 -18.15625 28.984375 -16.90625 29.609375 -15.4375 C 30.242188 -13.96875 30.9375 -12.265625 31.6875 -10.328125 C 32.695312 -7.804688 33.546875 -5.851562 34.234375 -4.46875 C 34.929688 -3.082031 35.570312 -2.101562 36.15625 -1.53125 C 36.75 -0.96875 37.398438 -0.6875 38.109375 -0.6875 C 38.328125 -0.6875 38.507812 -0.6875 38.65625 -0.6875 C 38.800781 -0.6875 38.957031 -0.707031 39.125 -0.75 L 39.125 0 C 38.664062 0.164062 38.066406 0.28125 37.328125 0.34375 C 36.585938 0.40625 35.90625 0.4375 35.28125 0.4375 Z M 10.90625 -23.6875 L 16.1875 -23.6875 C 19.800781 -23.6875 22.476562 -24.535156 24.21875 -26.234375 C 25.96875 -27.941406 26.84375 -30.140625 26.84375 -32.828125 C 26.84375 -34.710938 26.410156 -36.429688 25.546875 -37.984375 C 24.679688 -39.535156 23.289062 -40.785156 21.375 -41.734375 C 19.46875 -42.679688 16.960938 -43.15625 13.859375 -43.15625 C 13.398438 -43.15625 12.914062 -43.144531 12.40625 -43.125 C 11.90625 -43.101562 11.40625 -43.070312 10.90625 -43.03125 Z M 10.90625 -23.6875 "/></g></g></g><g fill="#1f628e" fill-opacity="1"><g transform="translate(256.953151, 345.187365)"><g><path d="M 3.21875 0 L 3.21875 -0.8125 C 4.175781 -1.113281 4.832031 -1.742188 5.1875 -2.703125 C 5.550781 -3.671875 5.734375 -5.4375 5.734375 -8 L 5.734375 -36.09375 C 5.734375 -38.695312 5.550781 -40.472656 5.1875 -41.421875 C 4.832031 -42.367188 4.175781 -42.988281 3.21875 -43.28125 L 3.21875 -44.09375 L 13.421875 -44.09375 L 13.421875 -43.28125 C 12.453125 -42.988281 11.789062 -42.367188 11.4375 -41.421875 C 11.082031 -40.472656 10.90625 -38.695312 10.90625 -36.09375 L 10.90625 -8 C 10.90625 -5.4375 11.082031 -3.671875 11.4375 -2.703125 C 11.789062 -1.742188 12.453125 -1.113281 13.421875 -0.8125 L 13.421875 0 Z M 3.21875 0 "/></g></g></g><g fill="#1f628e" fill-opacity="1"><g transform="translate(273.647423, 345.187365)"><g><path d="M 3.21875 0 L 3.21875 -0.8125 C 4.175781 -1.113281 4.832031 -1.742188 5.1875 -2.703125 C 5.550781 -3.671875 5.734375 -5.4375 5.734375 -8 L 5.734375 -36.09375 C 5.734375 -38.695312 5.550781 -40.472656 5.1875 -41.421875 C 4.832031 -42.367188 4.175781 -42.988281 3.21875 -43.28125 L 3.21875 -44.09375 L 32.890625 -44.09375 L 33.453125 -37.484375 L 32.765625 -37.296875 C 31.710938 -39.398438 30.40625 -40.890625 28.84375 -41.765625 C 27.289062 -42.648438 25.023438 -43.09375 22.046875 -43.09375 L 10.90625 -43.09375 L 10.90625 -24.640625 L 18.390625 -24.640625 C 20.785156 -24.640625 22.644531 -24.796875 23.96875 -25.109375 C 25.289062 -25.421875 26.253906 -25.890625 26.859375 -26.515625 C 27.472656 -27.148438 27.90625 -27.929688 28.15625 -28.859375 L 28.921875 -28.859375 L 28.921875 -19.28125 L 28.15625 -19.28125 C 27.90625 -20.25 27.472656 -21.046875 26.859375 -21.671875 C 26.253906 -22.296875 25.289062 -22.773438 23.96875 -23.109375 C 22.644531 -23.453125 20.785156 -23.625 18.390625 -23.625 L 10.90625 -23.625 L 10.90625 -8 C 10.90625 -5.4375 11.082031 -3.671875 11.4375 -2.703125 C 11.789062 -1.742188 12.453125 -1.113281 13.421875 -0.8125 L 13.421875 0 Z M 3.21875 0 "/></g></g></g><g fill="#1f628e" fill-opacity="1"><g transform="translate(308.92585, 345.187365)"><g><path d="M 12.53125 0 L 12.53125 -0.8125 C 13.5 -1.113281 14.160156 -1.742188 14.515625 -2.703125 C 14.878906 -3.671875 15.0625 -5.4375 15.0625 -8 L 15.0625 -43.09375 L 11.96875 -43.09375 C 9.15625 -43.09375 7.015625 -42.648438 5.546875 -41.765625 C 4.078125 -40.890625 2.796875 -39.316406 1.703125 -37.046875 L 1.015625 -37.171875 L 1.390625 -44.09375 L 33.828125 -44.09375 L 34.203125 -37.171875 L 33.515625 -37.046875 C 32.460938 -39.316406 31.203125 -40.890625 29.734375 -41.765625 C 28.265625 -42.648438 26.101562 -43.09375 23.25 -43.09375 L 20.28125 -43.09375 L 20.28125 -8 C 20.28125 -5.4375 20.457031 -3.671875 20.8125 -2.703125 C 21.175781 -1.742188 21.84375 -1.113281 22.8125 -0.8125 L 22.8125 0 Z M 12.53125 0 "/></g></g></g><g fill="#1f628e" fill-opacity="1"><g transform="translate(42.909869, 345.187365)"><g><path d="M 27.03125 0.625 C 22.195312 0.625 18.003906 -0.234375 14.453125 -1.953125 C 10.910156 -3.671875 8.160156 -6.15625 6.203125 -9.40625 C 4.253906 -12.664062 3.28125 -16.585938 3.28125 -21.171875 C 3.28125 -24.523438 3.890625 -27.617188 5.109375 -30.453125 C 6.328125 -33.296875 8.054688 -35.773438 10.296875 -37.890625 C 12.546875 -40.015625 15.210938 -41.65625 18.296875 -42.8125 C 21.390625 -43.96875 24.78125 -44.546875 28.46875 -44.546875 C 30.28125 -44.546875 32.117188 -44.382812 33.984375 -44.0625 C 35.859375 -43.75 37.570312 -43.359375 39.125 -42.890625 C 40.675781 -42.429688 41.851562 -41.929688 42.65625 -41.390625 L 42.90625 -33.890625 L 42.265625 -33.765625 C 41.054688 -36.617188 39.03125 -38.925781 36.1875 -40.6875 C 33.351562 -42.457031 30.066406 -43.34375 26.328125 -43.34375 C 23.015625 -43.34375 20.015625 -42.609375 17.328125 -41.140625 C 14.640625 -39.671875 12.503906 -37.484375 10.921875 -34.578125 C 9.347656 -31.679688 8.5625 -28.09375 8.5625 -23.8125 C 8.5625 -20.875 8.992188 -18.019531 9.859375 -15.25 C 10.722656 -12.476562 12.015625 -9.988281 13.734375 -7.78125 C 15.453125 -5.570312 17.570312 -3.828125 20.09375 -2.546875 C 22.613281 -1.265625 25.515625 -0.625 28.796875 -0.625 C 32.191406 -0.625 35.160156 -1.503906 37.703125 -3.265625 C 40.242188 -5.035156 42.125 -7.625 43.34375 -11.03125 L 44.03125 -10.96875 L 43.03125 -2.765625 C 41.5625 -1.972656 39.40625 -1.207031 36.5625 -0.46875 C 33.726562 0.257812 30.550781 0.625 27.03125 0.625 Z M 27.03125 0.625 "/></g></g></g></svg>